<svg xmlns="http://www.w3.org/2000/svg" version="1.1" xmlns:xlink="http://www.w3.org/1999/xlink" viewBox="0 0 200 200"><rect width="200" height="200" fill="url('#gradient')"></rect><defs><linearGradient id="gradient" gradientTransform="rotate(80 0.5 0.5)"><stop offset="0%" stop-color="#595858"></stop><stop offset="100%" stop-color="#ffffff"></stop></linearGradient></defs><g><g fill="#000000" transform="matrix(3.6094300755321584,0,0,3.6094300755321584,19.12848987024364,125.66242318543016)" stroke="#000000" stroke-width="0.2"><path d="M4.50-14.22L4.50-2.64L10.47-2.64L10.47 0L1.07 0L1.07-14.22L4.50-14.22ZM20.04-14.22L22.02-5.30L23.65-14.22L27.05-14.22L24.03 0L20.48 0L18.57-8.11L16.71 0L13.16 0L10.14-14.22L13.54-14.22L15.18-5.30L17.13-14.22L20.04-14.22ZM28.39-14.22L32.89-14.22L36.06-4.33L39.23-14.22L43.74-14.22L43.74 0L40.30 0L40.30-3.32L40.63-10.12L37.20 0L34.93 0L31.48-10.13L31.82-3.32L31.82 0L28.39 0L28.39-14.22Z"></path></g></g></svg>